<?xml version="1.0" encoding="UTF-8" standalone="no"?>
<!-- Created with Inkscape (http://www.inkscape.org/) -->

<svg
   xmlns:dc="http://purl.org/dc/elements/1.1/"
   xmlns:cc="http://creativecommons.org/ns#"
   xmlns:rdf="http://www.w3.org/1999/02/22-rdf-syntax-ns#"
   xmlns:svg="http://www.w3.org/2000/svg"
   xmlns="http://www.w3.org/2000/svg"
   xmlns:sodipodi="http://sodipodi.sourceforge.net/DTD/sodipodi-0.dtd"
   xmlns:inkscape="http://www.inkscape.org/namespaces/inkscape"
   width="164.48399mm"
   height="173.89819mm"
   viewBox="0 0 164.48399 173.89819"
   version="1.1"
   id="svg8"
   inkscape:version="0.92.1 r15371"
   sodipodi:docname="logo_upload.svg">
  <defs
     id="defs2">
    <inkscape:path-effect
       effect="spiro"
       id="path-effect4778"
       is_visible="true" />
    <inkscape:path-effect
       effect="spiro"
       id="path-effect4774"
       is_visible="true" />
    <inkscape:path-effect
       effect="spiro"
       id="path-effect4769"
       is_visible="true" />
    <inkscape:path-effect
       effect="spiro"
       id="path-effect4763"
       is_visible="true" />
    <inkscape:path-effect
       effect="spiro"
       id="path-effect4756"
       is_visible="true" />
    <inkscape:path-effect
       effect="spiro"
       id="path-effect4752"
       is_visible="true" />
    <inkscape:path-effect
       effect="spiro"
       id="path-effect4707"
       is_visible="true" />
    <inkscape:path-effect
       effect="spiro"
       id="path-effect4685"
       is_visible="true" />
    <inkscape:path-effect
       effect="spiro"
       id="path-effect4680"
       is_visible="true" />
    <inkscape:path-effect
       effect="spiro"
       id="path-effect4600"
       is_visible="true" />
    <inkscape:path-effect
       effect="spiro"
       id="path-effect4596"
       is_visible="true" />
    <inkscape:path-effect
       effect="spiro"
       id="path-effect4592"
       is_visible="true" />
    <inkscape:path-effect
       effect="spiro"
       id="path-effect4583"
       is_visible="true" />
    <inkscape:path-effect
       effect="spiro"
       id="path-effect4579"
       is_visible="true" />
    <inkscape:path-effect
       effect="spiro"
       id="path-effect4575"
       is_visible="true" />
    <inkscape:path-effect
       effect="spiro"
       id="path-effect4536"
       is_visible="true" />
    <inkscape:path-effect
       effect="spiro"
       id="path-effect4530"
       is_visible="true" />
    <inkscape:path-effect
       effect="spiro"
       id="path-effect4508"
       is_visible="true" />
    <inkscape:path-effect
       effect="spiro"
       id="path-effect4508-6"
       is_visible="true" />
    <inkscape:path-effect
       effect="spiro"
       id="path-effect4600-6"
       is_visible="true" />
    <inkscape:path-effect
       effect="spiro"
       id="path-effect4600-6-9"
       is_visible="true" />
    <inkscape:path-effect
       effect="spiro"
       id="path-effect4685-1"
       is_visible="true" />
  </defs>
  <sodipodi:namedview
     id="base"
     pagecolor="#ffffff"
     bordercolor="#666666"
     borderopacity="1.0"
     inkscape:pageopacity="0.0"
     inkscape:pageshadow="2"
     inkscape:zoom="1.0368618"
     inkscape:cx="227.4168"
     inkscape:cy="347.80989"
     inkscape:document-units="mm"
     inkscape:current-layer="layer1"
     showgrid="false"
     inkscape:snap-bbox="true"
     inkscape:object-paths="true"
     inkscape:snap-global="false"
     inkscape:window-width="1920"
     inkscape:window-height="1016"
     inkscape:window-x="0"
     inkscape:window-y="27"
     inkscape:window-maximized="1"
     fit-margin-top="0"
     fit-margin-left="0"
     fit-margin-right="0"
     fit-margin-bottom="0" />
  <metadata
     id="metadata5">
    <rdf:RDF>
      <cc:Work
         rdf:about="">
        <dc:format>image/svg+xml</dc:format>
        <dc:type
           rdf:resource="http://purl.org/dc/dcmitype/StillImage" />
        <dc:title></dc:title>
      </cc:Work>
    </rdf:RDF>
  </metadata>
  <g
     inkscape:label="Calque 1"
     inkscape:groupmode="layer"
     id="layer1"
     style="opacity:1"
     transform="translate(-34.32212,-41.865003)">
    <path
       style="opacity:1;fill:none;fill-opacity:1;fill-rule:evenodd;stroke:#00a54d;stroke-width:3.52600002;stroke-linecap:round;stroke-linejoin:round;stroke-miterlimit:4;stroke-dasharray:none;stroke-dashoffset:0;stroke-opacity:1;paint-order:markers stroke fill"
       d="M 191.05367,153.17654 A 78.49028,78.49028 0 0 1 120.64062,213.76427 78.49028,78.49028 0 0 1 41.735772,164.74493 78.49028,78.49028 0 0 1 64.855307,74.776285 78.49028,78.49028 0 0 1 157.6174,69.870757"
       id="path4487" />
    <path
       style="opacity:1;fill:none;fill-opacity:1;fill-rule:evenodd;stroke:#00a54d;stroke-width:3.52600002;stroke-linecap:round;stroke-linejoin:round;stroke-miterlimit:4;stroke-dasharray:none;stroke-dashoffset:0;stroke-opacity:1;paint-order:markers stroke fill"
       d="m 176.60368,87.409542 a 78.49028,78.49028 0 0 1 16.16663,41.268988"
       id="path4487-3" />
    <path
       style="fill:none;fill-rule:evenodd;stroke:#00a54d;stroke-width:3.52600002;stroke-linecap:round;stroke-linejoin:miter;stroke-miterlimit:4;stroke-dasharray:none;stroke-opacity:1"
       d="m 192.77031,128.67853 4.26735,-19.69433"
       id="path4506" />
    <path
       style="opacity:1;fill:none;fill-rule:evenodd;stroke:#00a54d;stroke-width:3.52600002;stroke-linecap:round;stroke-linejoin:miter;stroke-miterlimit:4;stroke-dasharray:none;stroke-opacity:1"
       inkscape:transform-center-x="6.2959045"
       inkscape:transform-center-y="-7.0544248"
       d="m 192.70289,128.70771 -13.0508,-15.35426"
       id="path4506-7" />
    <g
       id="g4556"
       transform="matrix(0.74169635,0.22143116,-0.22143116,0.74169635,62.226799,-8.3178522)"
       style="stroke-width:4.55529213;stroke-miterlimit:4;stroke-dasharray:none"
       inkscape:transform-center-x="-24.576209"
       inkscape:transform-center-y="2.1724457">
      <path
         sodipodi:nodetypes="cc"
         inkscape:connector-curvature="0"
         id="path4534"
         d="M 85.041985,62.78737 C 86.057466,19.059518 126.90051,53.013562 152.08553,61.599167"
         style="fill:none;fill-rule:evenodd;stroke:#00a54d;stroke-width:4.55529213;stroke-linecap:round;stroke-linejoin:miter;stroke-miterlimit:4;stroke-dasharray:none;stroke-opacity:1" />
      <path
         sodipodi:nodetypes="cc"
         inkscape:connector-curvature="0"
         id="path4534-5"
         d="m 85.041985,60.410964 c 1.01548,43.727856 41.858535,9.773808 67.043545,1.188203"
         style="opacity:1;fill:none;fill-rule:evenodd;stroke:#00a54d;stroke-width:4.55529213;stroke-linecap:round;stroke-linejoin:miter;stroke-miterlimit:4;stroke-dasharray:none;stroke-opacity:1" />
    </g>
    <path
       style="fill:none;fill-rule:evenodd;stroke:#00a54d;stroke-width:2.82599998;stroke-linecap:round;stroke-linejoin:miter;stroke-miterlimit:4;stroke-dasharray:none;stroke-opacity:1"
       d="m 122.97135,56.738563 c 3.38465,-3.739581 6.61118,-4.166868 9.80027,-3.809464"
       id="path4598"
       inkscape:connector-curvature="0"
       sodipodi:nodetypes="cc" />
    <path
       style="opacity:1;fill:none;fill-rule:evenodd;stroke:#00a54d;stroke-width:2.72600007;stroke-linecap:round;stroke-linejoin:miter;stroke-miterlimit:4;stroke-dasharray:none;stroke-opacity:1"
       inkscape:transform-center-x="-3.5804164"
       inkscape:transform-center-y="3.6769241"
       d="m 131.41335,58.990905 c 1.75236,4.139585 5.28873,6.495161 9.05331,8.622525"
       id="path4598-2"
       inkscape:connector-curvature="0"
       sodipodi:nodetypes="cc" />
    <path
       style="opacity:1;fill:none;fill-rule:evenodd;stroke:#00a54d;stroke-width:2.82599998;stroke-linecap:round;stroke-linejoin:miter;stroke-miterlimit:4;stroke-dasharray:none;stroke-opacity:1"
       inkscape:transform-center-x="-3.5804164"
       inkscape:transform-center-y="3.6769241"
       d="m 116.81003,58.181026 c 1.80434,3.486539 5.56025,5.509409 10.07402,6.963874"
       id="path4598-2-1"
       inkscape:connector-curvature="0"
       sodipodi:nodetypes="cc" />
    <path
       style="fill:none;fill-rule:evenodd;stroke:#00a54d;stroke-width:3.52600002;stroke-linecap:round;stroke-linejoin:round;stroke-miterlimit:4;stroke-dasharray:none;stroke-opacity:1"
       d="M 58.882105,124.37272 V 142.4265"
       id="path4683" />
    <path
       style="opacity:1;fill:none;fill-rule:evenodd;stroke:#00a54d;stroke-width:3.52600002;stroke-linecap:round;stroke-linejoin:round;stroke-miterlimit:4;stroke-dasharray:none;stroke-opacity:1"
       d="M 75.085848,101.63006 74.830671,142.3946"
       id="path4683-6" />
    <path
       style="fill:none;fill-rule:evenodd;stroke:#00a54d;stroke-width:3.526;stroke-linecap:round;stroke-linejoin:round;stroke-opacity:1;stroke-miterlimit:4;stroke-dasharray:none"
       d="m 58.882105,142.4265 c 1.775775,7.43477 14.718239,7.7314 15.948564,-0.0319"
       id="path4705"
       inkscape:connector-curvature="0"
       sodipodi:nodetypes="cc" />
    <path
       transform="translate(34.32212,41.865003)"
       style="display:inline;fill:none;fill-rule:evenodd;stroke:#00a54d;stroke-width:3.52600002;stroke-linecap:round;stroke-linejoin:round;stroke-miterlimit:4;stroke-dasharray:none;stroke-opacity:1"
       d="M 50.071384,88.201457 49.530072,131.03115"
       id="path4750" />
    <path
       transform="translate(34.32212,41.865003)"
       style="display:inline;fill:none;fill-rule:evenodd;stroke:#00a54d;stroke-width:3.52600002;stroke-linecap:round;stroke-linejoin:round;stroke-miterlimit:4;stroke-dasharray:none;stroke-opacity:1"
       d="m 50.071384,92.069813 c 11.541543,-18.646418 10.813275,27.336447 0,10.284937"
       id="path4754"
       inkscape:connector-curvature="0"
       sodipodi:nodetypes="cc" />
    <path
       style="fill:none;fill-rule:evenodd;stroke:#00a54d;stroke-width:3.52600002;stroke-linecap:round;stroke-linejoin:round;stroke-miterlimit:4;stroke-dasharray:none;stroke-opacity:1"
       d="m 103.65466,109.24814 v 44.14765"
       id="path4761" />
    <path
       style="opacity:1;fill:none;fill-opacity:1;fill-rule:evenodd;stroke:#00a54d;stroke-width:3.52600002;stroke-linecap:round;stroke-linejoin:round;stroke-miterlimit:4;stroke-dasharray:none;stroke-dashoffset:0;stroke-opacity:1;paint-order:markers stroke fill"
       d="m 119.14342,131.91934 a 4.7224088,8.5885038 0 0 1 1.11239,11.91141 4.7224088,8.5885038 0 0 1 -6.53746,2.14814 4.7224088,8.5885038 0 0 1 -1.24981,-11.86625 4.7224088,8.5885038 0 0 1 6.51119,-2.39758"
       id="path4765" />
    <path
       style="fill:none;fill-rule:evenodd;stroke:#00a54d;stroke-width:3.52600002;stroke-linecap:round;stroke-linejoin:round;stroke-miterlimit:4;stroke-dasharray:none;stroke-opacity:1"
       d="m 132.04933,135.88922 c -1.31357,-5.34638 8.73603,-8.26457 9.89404,0 0.0444,3.06394 0.25572,5.56393 0,9.38131 -14.8978,7.28227 -15.60737,-7.38947 0.19138,-6.44323"
       id="path4767"
       inkscape:connector-curvature="0"
       sodipodi:nodetypes="cccc" />
    <path
       style="fill:none;fill-rule:evenodd;stroke:#00a54d;stroke-width:3.52600002;stroke-linecap:round;stroke-linejoin:round;stroke-miterlimit:4;stroke-dasharray:none;stroke-opacity:1"
       d="m 164.06725,108.05487 v 40.95929"
       id="path4772" />
    <path
       style="fill:none;fill-rule:evenodd;stroke:#00a54d;stroke-width:3.52600002;stroke-linecap:round;stroke-linejoin:round;stroke-miterlimit:4;stroke-dasharray:none;stroke-opacity:1"
       d="m 162.17266,134.57918 c -12.05926,-3.2178 -20.35933,11.93894 0,11.90887"
       id="path4776"
       inkscape:connector-curvature="0"
       sodipodi:nodetypes="cc" />
  </g>
  <g
     inkscape:groupmode="layer"
     id="layer2"
     inkscape:label="Calque 2"
     style="display:none">
    <g
       aria-label="Upload"
       transform="matrix(0.26458333,0,0,0.26458333,-30.352497,-20.212512)"
       style="font-style:normal;font-weight:normal;font-size:13.33333302px;line-height:125%;font-family:sans-serif;letter-spacing:0px;word-spacing:0px;writing-mode:lr-tb;opacity:1;fill:none;fill-opacity:1;stroke:#00a54d;stroke-width:3.77952766;stroke-linecap:round;stroke-linejoin:round;stroke-miterlimit:4;stroke-dasharray:none;stroke-opacity:1"
       id="flowRoot4658">
      <path
         d="m 236.6582,481.49837 q -8.59375,0 -15.75521,-2.01822 -7.16145,-2.08334 -12.36979,-6.38021 -5.14323,-4.36198 -8.07291,-11.13281 -2.86459,-6.77084 -2.86459,-16.14584 v -57.35677 h 19.20573 v 55.85938 q 0,5.79427 1.43229,10.02604 1.43229,4.16666 4.10157,6.90104 2.66927,2.66927 6.44531,3.97135 3.77604,1.23698 8.39843,1.23698 4.6875,0 8.59375,-1.30208 3.97136,-1.36719 6.77084,-4.16667 2.86458,-2.79948 4.42708,-7.09635 1.5625,-4.29688 1.5625,-10.22136 v -55.20833 h 19.20573 v 56.38021 q 0,9.4401 -3.0599,16.34115 -3.05989,6.90104 -8.52864,11.45833 -5.46875,4.49219 -13.02084,6.70573 -7.48697,2.14843 -16.47135,2.14843 z"
         style="font-style:normal;font-variant:normal;font-weight:bold;font-stretch:normal;font-size:133.33332825px;font-family:'Liberation Sans';-inkscape-font-specification:'Liberation Sans Bold';fill:none;fill-opacity:1;stroke:#00a54d;stroke-width:3.77952766;stroke-linecap:round;stroke-linejoin:round;stroke-miterlimit:4;stroke-dasharray:none;stroke-opacity:1"
         id="path4729"
         inkscape:connector-curvature="0" />
      <path
         d="m 361.91861,444.64942 q 0,8.00781 -1.6276,14.77864 -1.5625,6.77084 -4.88281,11.65365 -3.32031,4.88281 -8.46354,7.68229 -5.07813,2.73437 -12.04427,2.73437 -3.125,0 -6.25,-0.65104 -3.0599,-0.65104 -5.85938,-2.08333 -2.79948,-1.4974 -5.20833,-3.84115 -2.34375,-2.40885 -4.03646,-5.92448 h -0.39062 q 0.0651,0.32553 0.1302,1.62761 0.0651,1.30208 0.13021,3.05989 0.0651,1.69271 0.0651,3.64584 0.0651,1.88802 0.0651,3.51562 v 27.01823 h -18.29427 v -81.90104 q 0,-5.40364 -0.19531,-9.63541 -0.13021,-4.23177 -0.32552,-6.57552 h 17.77343 q 0.13021,0.45572 0.26042,1.75781 0.19531,1.30208 0.26042,2.99479 0.13021,1.69271 0.19531,3.51562 0.0651,1.82292 0.0651,3.19011 h 0.26042 q 3.32031,-6.96615 9.11458,-9.96094 5.79427,-2.99479 13.41146,-2.99479 6.70573,0 11.58854,2.73437 4.88281,2.73438 8.00781,7.55209 3.19011,4.81771 4.6875,11.52343 1.5625,6.64063 1.5625,14.58334 z m -19.07552,0 q 0,-12.04427 -3.64583,-17.83854 -3.64583,-5.85938 -10.87239,-5.85938 -2.73438,0 -5.46875,1.17188 -2.66927,1.10677 -4.81771,3.90625 -2.08334,2.73437 -3.45052,7.42187 -1.30209,4.6224 -1.30209,11.71875 0,6.90104 1.30209,11.52344 1.30208,4.55729 3.38541,7.29166 2.14844,2.73438 4.81771,3.90625 2.66927,1.10677 5.40365,1.10677 3.51562,0 6.25,-1.36718 2.73437,-1.43229 4.55729,-4.36198 1.88802,-2.99479 2.86458,-7.61719 0.97656,-4.62239 0.97656,-11.0026 z"
         style="font-style:normal;font-variant:normal;font-weight:bold;font-stretch:normal;font-size:133.33332825px;font-family:'Liberation Sans';-inkscape-font-specification:'Liberation Sans Bold';fill:none;fill-opacity:1;stroke:#00a54d;stroke-width:3.77952766;stroke-linecap:round;stroke-linejoin:round;stroke-miterlimit:4;stroke-dasharray:none;stroke-opacity:1"
         id="path4731"
         inkscape:connector-curvature="0" />
      <path
         d="m 376.76236,480.19629 v -96.61458 h 18.29427 v 96.61458 z"
         style="font-style:normal;font-variant:normal;font-weight:bold;font-stretch:normal;font-size:133.33332825px;font-family:'Liberation Sans';-inkscape-font-specification:'Liberation Sans Bold';fill:none;fill-opacity:1;stroke:#00a54d;stroke-width:3.77952766;stroke-linecap:round;stroke-linejoin:round;stroke-miterlimit:4;stroke-dasharray:none;stroke-opacity:1"
         id="path4733"
         inkscape:connector-curvature="0" />
      <path
         d="m 480.66862,444.90983 q 0,8.07292 -2.27865,14.77865 -2.21354,6.70573 -6.70573,11.58854 -4.49219,4.81771 -11.19791,7.55208 -6.70573,2.66927 -15.625,2.66927 -8.59375,0 -15.16927,-2.66927 -6.57552,-2.66927 -11.06771,-7.48698 -4.42708,-4.8177 -6.70573,-11.52343 -2.27865,-6.77084 -2.27865,-14.90886 0,-7.8776 2.14844,-14.51822 2.21354,-6.70573 6.64063,-11.58855 4.42708,-4.88281 11.13281,-7.61718 6.70573,-2.73438 15.6901,-2.73438 9.50521,0 16.21094,2.73438 6.70573,2.73437 10.9375,7.61718 4.29687,4.81771 6.25,11.52344 2.01823,6.64063 2.01823,14.58333 z m -19.14063,0 q 0,-12.5651 -4.10156,-18.22916 -4.10156,-5.66406 -11.91406,-5.66406 -8.07292,0 -12.36979,5.72916 -4.29688,5.72917 -4.29688,18.16406 0,6.31511 1.10677,10.8724 1.17188,4.55729 3.25521,7.48698 2.08333,2.92969 5.01302,4.36198 2.92969,1.36718 6.44531,1.36718 4.03646,0 7.16146,-1.36718 3.19011,-1.43229 5.33854,-4.36198 2.14844,-2.92969 3.25521,-7.48698 1.10677,-4.55729 1.10677,-10.8724 z"
         style="font-style:normal;font-variant:normal;font-weight:bold;font-stretch:normal;font-size:133.33332825px;font-family:'Liberation Sans';-inkscape-font-specification:'Liberation Sans Bold';fill:none;fill-opacity:1;stroke:#00a54d;stroke-width:3.77952766;stroke-linecap:round;stroke-linejoin:round;stroke-miterlimit:4;stroke-dasharray:none;stroke-opacity:1"
         id="path4735"
         inkscape:connector-curvature="0" />
      <path
         d="m 511.52798,481.49837 q -5.07812,0 -9.11458,-1.36718 -3.97135,-1.43229 -6.77083,-4.10157 -2.79948,-2.73437 -4.29688,-6.70572 -1.49739,-3.97136 -1.49739,-9.04948 0,-6.25 2.14843,-10.48177 2.21355,-4.29688 5.98959,-6.90105 3.77604,-2.66927 8.85416,-3.84114 5.07813,-1.23698 10.8073,-1.30208 l 15.16927,-0.26042 v -3.58073 q 0,-3.84115 -0.71615,-6.38021 -0.65104,-2.60416 -1.95313,-4.23177 -1.30208,-1.6276 -3.2552,-2.27864 -1.88802,-0.71615 -4.36198,-0.71615 -2.27865,0 -4.10156,0.45573 -1.75782,0.45573 -3.0599,1.6276 -1.30208,1.10677 -2.14844,3.0599 -0.78125,1.88802 -1.10677,4.81771 l -19.07552,-0.91146 q 0.78125,-4.6224 2.86458,-8.39844 2.08334,-3.84114 5.72917,-6.64062 3.71094,-2.79948 9.04948,-4.29688 5.40365,-1.5625 12.63021,-1.5625 6.57552,0 11.71875,1.62761 5.14323,1.6276 8.72395,4.88281 3.58073,3.1901 5.46875,7.8776 1.88803,4.6875 1.88803,10.8724 v 25.65104 q 0,2.47396 0.19531,4.42708 0.26041,1.95313 0.84635,3.32031 0.65104,1.30209 1.75781,2.01823 1.17188,0.65104 2.9948,0.65104 2.08333,0 4.03645,-0.39062 v 9.89583 q -1.6276,0.39063 -2.92968,0.71615 -1.30209,0.32552 -2.60417,0.52083 -1.30208,0.19531 -2.79948,0.32552 -1.43229,0.13021 -3.38542,0.13021 -6.90104,0 -10.22135,-3.38542 -3.25521,-3.38541 -3.90625,-9.96093 h -0.39062 q -3.64584,6.57552 -9.375,10.22135 -5.66407,3.64583 -13.80209,3.64583 z m 21.28907,-33.91927 -9.375,0.13021 q -2.92969,0.13021 -5.59896,0.52084 -2.60417,0.32552 -4.6224,1.49739 -1.95312,1.10677 -3.125,3.25521 -1.17187,2.14844 -1.17187,5.85938 0,5.01302 2.27864,7.48697 2.34375,2.40886 6.1849,2.40886 3.51562,0 6.38021,-1.4974 2.86458,-1.49739 4.8177,-3.90625 2.01823,-2.47396 3.125,-5.66406 1.10678,-3.1901 1.10678,-6.51042 z"
         style="font-style:normal;font-variant:normal;font-weight:bold;font-stretch:normal;font-size:133.33332825px;font-family:'Liberation Sans';-inkscape-font-specification:'Liberation Sans Bold';fill:none;fill-opacity:1;stroke:#00a54d;stroke-width:3.77952766;stroke-linecap:round;stroke-linejoin:round;stroke-miterlimit:4;stroke-dasharray:none;stroke-opacity:1"
         id="path4737"
         inkscape:connector-curvature="0" />
      <path
         d="m 615.10871,480.19629 q -0.13021,-0.52083 -0.32552,-1.82292 -0.13021,-1.36718 -0.32552,-3.05989 -0.13021,-1.69271 -0.26042,-3.45052 -0.0651,-1.75781 -0.0651,-3.125 h -0.26042 q -3.1901,6.83594 -8.91927,9.83073 -5.66406,2.92968 -13.60677,2.92968 -6.64062,0 -11.52344,-2.73437 -4.8177,-2.73438 -8.00781,-7.61719 -3.125,-4.88281 -4.6875,-11.52343 -1.49739,-6.70573 -1.49739,-14.58334 0,-8.00781 1.5625,-14.71354 1.6276,-6.70573 4.94791,-11.52344 3.32032,-4.88281 8.39844,-7.61718 5.14323,-2.73438 12.17448,-2.73438 3.45052,0 6.64062,0.71615 3.19011,0.71614 5.92448,2.21354 2.73438,1.4974 4.94792,3.84115 2.21354,2.34375 3.77604,5.66406 h 0.13021 q 0,-0.65104 -0.0651,-1.88802 0,-1.30209 0,-2.92969 0,-1.6276 -0.0651,-3.38542 0,-1.75781 0,-3.38541 v -25.71615 h 18.29427 v 81.25 q 0,5.14323 0.19531,9.17969 0.19532,3.97135 0.32552,6.18489 z m -0.84635,-35.61198 q 0,-6.96614 -1.30209,-11.52343 -1.30208,-4.6224 -3.45052,-7.29167 -2.08333,-2.73438 -4.8177,-3.77604 -2.66928,-1.10677 -5.46875,-1.10677 -3.51563,0 -6.25,1.36718 -2.66927,1.36719 -4.5573,4.29688 -1.82291,2.92969 -2.79947,7.48698 -0.91146,4.55729 -0.91146,11.0026 0,23.95833 14.38802,23.95833 2.73437,0 5.46875,-1.17187 2.73437,-1.17188 4.88281,-3.97135 2.14844,-2.79948 3.45052,-7.48698 1.36719,-4.75261 1.36719,-11.78386 z"
         style="font-style:normal;font-variant:normal;font-weight:bold;font-stretch:normal;font-size:133.33332825px;font-family:'Liberation Sans';-inkscape-font-specification:'Liberation Sans Bold';fill:none;fill-opacity:1;stroke:#00a54d;stroke-width:3.77952766;stroke-linecap:round;stroke-linejoin:round;stroke-miterlimit:4;stroke-dasharray:none;stroke-opacity:1"
         id="path4739"
         inkscape:connector-curvature="0" />
    </g>
  </g>
</svg>
